<svg xmlns="http://www.w3.org/2000/svg" width="209" height="60" viewBox="0 0 209 60">
  <g id="App_Store" data-name="App Store" transform="translate(-2346.494 -217.159)">
    <rect id="Rectangle_7" data-name="Rectangle 7" width="209" height="60" transform="translate(2346.494 217.159)" fill="#fff"/>
    <path id="Path_45" data-name="Path 45" d="M2433.329,274.4a8.869,8.869,0,0,0-7.323-3.949c-4.964,0-6.245,1.85-8.114,1.85s-3.1-1.85-7.046-1.85-9.555,3.371-9.555,11.934,6.405,18.6,10.515,18.6,4.324-2.028,6.886-2.028,3.363,2.028,6.192,2.028,7.279-5.469,9.414-10.914a8.121,8.121,0,0,1-5.442-7.882C2428.856,275.946,2433.329,274.4,2433.329,274.4Z" transform="translate(-36.222 -35.23)"/>
    <path id="Path_46" data-name="Path 46" d="M2457.033,242.347s-7.635.4-8.137,9.087C2448.9,251.434,2456.536,251.475,2457.033,242.347Z" transform="translate(-67.69 -16.65)"/>
    <g id="Group_8" data-name="Group 8" transform="translate(2413.393 225.791)">
      <path id="Path_47" data-name="Path 47" d="M2543.849,244.44h3.841c3.313,0,5.223,1.87,5.223,4.991,0,3.408-1.918,5.445-5.341,5.445h-3.723Zm2.126,8.905h1.564c2.119,0,3.185-1.415,3.185-3.882,0-2.108-1.042-3.469-3.168-3.469h-1.581Z" transform="translate(-2543.849 -243.824)"/>
      <path id="Path_48" data-name="Path 48" d="M2582.323,255.6c0,2.334-1.174,4.178-3.994,4.178-2.861,0-3.915-1.944-3.915-4.135a3.768,3.768,0,0,1,4.026-4A3.634,3.634,0,0,1,2582.323,255.6Zm-5.815,0c0,1.709.646,2.687,1.9,2.687,1.211,0,1.829-.968,1.829-2.675,0-1.606-.607-2.488-1.883-2.488C2577.153,253.129,2576.507,254.087,2576.507,255.6Z" transform="translate(-2564.053 -248.584)"/>
      <path id="Path_49" data-name="Path 49" d="M2602.072,252.084c.761,3.142,1.208,4.929,1.386,5.886h.03c.2-.936.718-2.735,1.569-5.886h1.874c.761,2.72,1.376,4.957,1.5,5.839h.017c.159-.815.5-2.105,1.46-5.839h2.044l-2.534,7.844h-2.073c-.643-2.424-1.217-4.3-1.421-5.425h-.017c-.215,1.143-.886,3.3-1.539,5.425h-2.091l-2.4-7.844Z" transform="translate(-2580.882 -248.877)"/>
      <path id="Path_50" data-name="Path 50" d="M2638.748,254.236c0-1.621-.016-2.1-.032-2.447h2a7.534,7.534,0,0,1,.071,1.042,2.6,2.6,0,0,1,2.387-1.194c1.729,0,2.682.981,2.682,2.83v5.166H2643.8v-4.812c0-.93-.273-1.622-1.367-1.622s-1.625.634-1.625,2.052v4.381h-2.057Z" transform="translate(-2606.559 -248.582)"/>
      <path id="Path_51" data-name="Path 51" d="M2666.2,253.675V242.624h2.058v11.051Z" transform="translate(-2624.725 -242.624)"/>
      <path id="Path_52" data-name="Path 52" d="M2685.066,255.6c0,2.334-1.174,4.178-3.994,4.178-2.861,0-3.915-1.944-3.915-4.135a3.768,3.768,0,0,1,4.026-4A3.634,3.634,0,0,1,2685.066,255.6Zm-5.815,0c0,1.709.645,2.687,1.9,2.687,1.211,0,1.828-.968,1.828-2.675,0-1.606-.607-2.488-1.883-2.488C2679.9,253.129,2679.251,254.087,2679.251,255.6Z" transform="translate(-2631.969 -248.584)"/>
      <path id="Path_53" data-name="Path 53" d="M2710.756,257.695a16.612,16.612,0,0,0,.116,1.94h-1.817a5.845,5.845,0,0,1-.126-.984,2.54,2.54,0,0,1-2.411,1.121c-2.084,0-2.807-1.225-2.807-2.385,0-1.381,1.038-2.558,3.976-2.558.323,0,.665,0,1.05,0v-.637c0-.648-.209-1.206-1.3-1.206-1.043,0-1.31.486-1.4,1.114h-1.991c.094-1.245.893-2.461,3.431-2.461,1.971,0,3.281.653,3.281,2.524Zm-1.954-1.632c-.3,0-.647,0-1.078,0-1.623,0-1.947.606-1.947,1.183s.376,1.083,1.274,1.083c1.394,0,1.751-.853,1.751-2.088Z" transform="translate(-2649.522 -248.584)"/>
      <path id="Path_54" data-name="Path 54" d="M2736.975,242.624v8.9c0,.882.011,1.691.032,2.155h-2a8.672,8.672,0,0,1-.071-.967c-.4.719-1.046,1.115-2.406,1.115-2.169,0-3.264-1.634-3.264-4.062,0-2.348,1.325-4.081,3.619-4.081,1.277,0,1.84.416,2.038.754v-3.81Zm-5.608,7.076c0,1.595.6,2.587,1.821,2.587,1.517,0,1.819-.974,1.819-2.6,0-1.8-.417-2.458-1.743-2.458C2732.11,247.227,2731.367,248.041,2731.367,249.7Z" transform="translate(-2666.411 -242.624)"/>
      <path id="Path_55" data-name="Path 55" d="M2778.387,255.6c0,2.334-1.19,4.178-4.049,4.178-2.9,0-3.969-1.944-3.969-4.135a3.793,3.793,0,0,1,4.082-4A3.657,3.657,0,0,1,2778.387,255.6Zm-5.9,0c0,1.709.655,2.687,1.928,2.687,1.228,0,1.853-.968,1.853-2.675,0-1.606-.615-2.488-1.909-2.488C2773.147,253.129,2772.492,254.087,2772.492,255.6Z" transform="translate(-2693.585 -248.584)"/>
      <path id="Path_56" data-name="Path 56" d="M2798.676,254.236c0-1.621-.016-2.1-.032-2.447h2.032a7.428,7.428,0,0,1,.072,1.042,2.65,2.65,0,0,1,2.419-1.194,2.493,2.493,0,0,1,2.719,2.83v5.166h-2.09v-4.812c0-.93-.277-1.622-1.386-1.622-1.125,0-1.648.634-1.648,2.052v4.381h-2.086Z" transform="translate(-2712.274 -248.582)"/>
      <path id="Path_57" data-name="Path 57" d="M2837.474,247.9h1.258v-2.147h2.073V247.9h1.583v1.473h-1.583v4.239c0,.556.147.794.86.794a3.439,3.439,0,0,0,.552-.037v1.315a5.211,5.211,0,0,1-1.334.146c-1.573,0-2.151-.561-2.151-1.981V249.37h-1.258Z" transform="translate(-2737.942 -244.691)"/>
      <path id="Path_58" data-name="Path 58" d="M2857.77,242.624V246.8a2.642,2.642,0,0,1,2.422-1.12,2.477,2.477,0,0,1,2.7,2.8v5.193h-2.062v-4.9c0-.913-.335-1.536-1.43-1.536-1.152,0-1.631.7-1.631,2.008v4.425h-2.086V242.624Z" transform="translate(-2749.98 -242.624)"/>
      <path id="Path_59" data-name="Path 59" d="M2884.04,256.13c0,1.1.451,2.159,1.786,2.159a1.486,1.486,0,0,0,1.571-1.015h2.043a3.47,3.47,0,0,1-3.678,2.5c-2.78,0-3.825-1.79-3.825-4.066,0-1.987,1.074-4.07,3.915-4.07s3.7,1.871,3.7,3.851c0,.107-.013.531-.026.639Zm3.469-1.254c-.034-.973-.448-1.8-1.69-1.8a1.69,1.69,0,0,0-1.746,1.8Z" transform="translate(-2767.333 -248.584)"/>
    </g>
    <g id="Group_9" data-name="Group 9" transform="translate(2411.154 243.649)">
      <path id="Path_60" data-name="Path 60" d="M2542.447,311.587l-1.847,5.929h-3.357c.964-2.83,5.719-18.171,6.8-21.382h4.339l7.11,21.382H2551.9l-1.93-5.929Zm6.8-2.824c-1.607-5.01-2.662-8.146-3.106-9.971h-.047c-.558,2.439-1.612,5.761-2.943,9.971Z" transform="translate(-2537.243 -295.853)"/>
      <path id="Path_61" data-name="Path 61" d="M2601.988,325.93v7.883h-3.269V316.355c0-2.163.017-3.645-.044-4.648h3.213c.049.515.082,1.511.1,2.348a4.953,4.953,0,0,1,4.81-2.657c3.42,0,5.985,2.649,5.985,8.036,0,5.3-2.878,8.44-6.669,8.44C2603.908,327.873,2602.627,327.049,2601.988,325.93Zm7.433-6.419c0-3.666-1.445-5.39-3.738-5.39-2.957,0-3.846,1.9-3.846,5.571,0,3.339.684,5.492,3.7,5.492C2608.017,325.184,2609.421,323.176,2609.421,319.511Z" transform="translate(-2577.851 -305.943)"/>
      <path id="Path_62" data-name="Path 62" d="M2653.288,325.93v7.883h-3.269V316.355c0-2.163.017-3.645-.044-4.648h3.212c.049.515.082,1.511.1,2.348a4.954,4.954,0,0,1,4.811-2.657c3.419,0,5.985,2.649,5.985,8.036,0,5.3-2.878,8.44-6.669,8.44C2655.208,327.873,2653.927,327.049,2653.288,325.93Zm7.433-6.419c0-3.666-1.445-5.39-3.738-5.39-2.957,0-3.846,1.9-3.846,5.571,0,3.339.684,5.492,3.7,5.492C2659.316,325.184,2660.721,323.176,2660.721,319.511Z" transform="translate(-2611.762 -305.943)"/>
      <path id="Path_63" data-name="Path 63" d="M2755.616,306.047h2.334v-4.28h3.124v4.28h2.938v2.479h-2.937v8.814c0,1.167.289,1.663,1.573,1.663a6.3,6.3,0,0,0,1.075-.084v2.232a7.705,7.705,0,0,1-2.2.272c-2.529,0-3.574-.978-3.574-3.623v-9.275h-2.334Z" transform="translate(-2681.593 -299.577)"/>
      <path id="Path_64" data-name="Path 64" d="M2802.55,319.415c0,4.666-2.124,8.475-7.346,8.475-5.2,0-7.172-4-7.172-8.4,0-4.151,2.3-8.1,7.376-8.1C2800.183,311.4,2802.55,314.91,2802.55,319.415Zm-11.157.024c0,3.565,1.354,5.828,3.964,5.828s3.836-2.225,3.836-5.832c0-3.348-1.288-5.413-3.931-5.413C2792.737,314.022,2791.393,316.181,2791.393,319.439Z" transform="translate(-2703.021 -305.943)"/>
      <path id="Path_65" data-name="Path 65" d="M2840.477,317.166c0-2.567-.013-4.467-.062-5.392h3.212c.066.707.085,1.706.085,3.028a5.171,5.171,0,0,1,5.034-3.3v3.338c-3.461.052-4.984,1.72-4.984,5.218v7.619h-3.286Z" transform="translate(-2737.647 -306.01)"/>
      <path id="Path_66" data-name="Path 66" d="M2880.539,324.189a6.846,6.846,0,0,1-4.189,1.086c-2.641,0-3.724-2.271-3.711-4.936h10.4c.019-.168.037-1.1.037-1.249,0-3.856-1.518-7.693-6.683-7.693-5.117,0-7.077,4.269-7.077,8.236,0,4.515,1.838,8.266,6.918,8.266,2.68,0,4.531-.614,5.56-1.552Zm-4.213-10.255c2.521,0,3.442,1.843,3.515,4.16H2872.7C2872.813,316.424,2873.477,313.934,2876.326,313.934Z" transform="translate(-2756.747 -305.943)"/>
      <path id="Path_67" data-name="Path 67" d="M2718.525,304.27c-3.28-.983-4.378-1.643-4.378-3.48,0-1.758,1.122-2.851,3.4-2.851a8.171,8.171,0,0,1,4.584,1.328l1.058-2.523a12.364,12.364,0,0,0-5.584-1.438c-4.054,0-6.872,2.19-6.872,5.8,0,3.078,1.716,4.681,6.4,6.06,3.5,1.06,4.64,1.987,4.64,4.172,0,2.025-1.343,3.231-3.87,3.231-1.39,0-4.588-.475-5.976-1.777l-1.07,2.658c1.929,1.449,5.059,1.773,6.9,1.773,5.078,0,7.491-2.746,7.491-6.267C2725.242,307.947,2723.875,305.875,2718.525,304.27Z" transform="translate(-2651.922 -295.306)"/>
    </g>
  </g>
</svg>
