<svg xmlns="http://www.w3.org/2000/svg" width="209" height="60" viewBox="0 0 209 60">
  <g id="Google_Play" data-name="Google Play" transform="translate(-1491.692 -214.428)">
    <rect id="Rectangle_8" data-name="Rectangle 8" width="209" height="60" transform="translate(1491.692 214.428)" fill="#fff"/>
    <g id="Group_13" data-name="Group 13" transform="translate(1505.354 223.72)">
      <g id="Group_11" data-name="Group 11" transform="translate(0 0.388)">
        <path id="Path_69" data-name="Path 69" d="M1535.759,247.193a2.506,2.506,0,0,0-1.032,2.04v34.992a2.5,2.5,0,0,0,.845,1.885l19.446-19.354Z" transform="translate(-1534.727 -246.693)" fill="#5ac5fa"/>
        <path id="Path_70" data-name="Path 70" d="M1563.711,259.133l-23.185-13.084a2.519,2.519,0,0,0-2.752.17l19.258,19.563Z" transform="translate(-1536.74 -245.718)" fill="#6eec84"/>
        <path id="Path_71" data-name="Path 71" d="M1609.081,289.7l-7.818-4.411-6.68,6.649,6.558,6.663,7.939-4.48A2.538,2.538,0,0,0,1609.081,289.7Z" transform="translate(-1574.294 -271.877)" fill="#f7cd45"/>
        <path id="Path_72" data-name="Path 72" d="M1537.219,324.26a2.524,2.524,0,0,0,2.94.324l23.064-13.016-6.558-6.663Z" transform="translate(-1536.374 -284.843)" fill="#e4464d"/>
      </g>
      <g id="Group_12" data-name="Group 12" transform="translate(48.01)">
        <path id="Path_73" data-name="Path 73" d="M1686.885,299.764v3.068h6.522a6.761,6.761,0,0,1-6.522,5.142,7.271,7.271,0,1,1,5.024-12.525l2.253-2.349a10.525,10.525,0,1,0-7.277,18.129c6.124,0,9.586-4.254,9.586-10.527,0-.317-.017-.629-.044-.939Z" transform="translate(-1676.358 -274.717)"/>
        <path id="Path_74" data-name="Path 74" d="M1683.108,254.758c2.963,0,4.638-2.058,4.638-5.093,0-.153-.008-.3-.021-.454h-4.616v1.484h3.032a2.949,2.949,0,0,1-3.032,2.488,3.518,3.518,0,1,1,2.431-6.06l1.09-1.136a5.092,5.092,0,1,0-3.521,8.771Z" transform="translate(-1677.453 -244.572)"/>
        <path id="Path_75" data-name="Path 75" d="M1744.927,312.421a6.694,6.694,0,1,0,6.693,6.693A6.693,6.693,0,0,0,1744.927,312.421Zm0,10.4a3.708,3.708,0,1,1,3.708-3.708A3.708,3.708,0,0,1,1744.927,322.822Z" transform="translate(-1717.259 -289.422)"/>
        <path id="Path_76" data-name="Path 76" d="M1787.174,312.421a6.694,6.694,0,1,0,6.693,6.693A6.694,6.694,0,0,0,1787.174,312.421Zm0,10.4a3.708,3.708,0,1,1,3.707-3.708A3.708,3.708,0,0,1,1787.174,322.822Z" transform="translate(-1745.185 -289.422)"/>
        <path id="Path_77" data-name="Path 77" d="M1832.333,313.793a5.862,5.862,0,0,0-3.751-1.373,6.714,6.714,0,0,0,0,13.387,5.862,5.862,0,0,0,3.751-1.373v1.15a3.768,3.768,0,0,1-.538,1.986,3,3,0,0,1-2.706,1.453,3.844,3.844,0,0,1-3.708-2.4l-2.373,1.255a6.657,6.657,0,0,0,6.08,3.873,5.8,5.8,0,0,0,6.113-5.63V312.778h-2.869Zm-3.244,9.029a3.708,3.708,0,1,1,3.707-3.708A3.708,3.708,0,0,1,1829.089,322.822Z" transform="translate(-1772.892 -289.422)"/>
        <rect id="Rectangle_9" data-name="Rectangle 9" width="3.076" height="19.542" transform="translate(64.172 16.486)"/>
        <path id="Path_78" data-name="Path 78" d="M1939.723,293.2h-7.436v19.542h3.076v-7.269h4.36a6.137,6.137,0,0,0,6.137-6.137h0A6.137,6.137,0,0,0,1939.723,293.2Zm0,9.2h-4.36v-6.122h4.36a3.061,3.061,0,1,1,0,6.122Z" transform="translate(-1845.533 -276.72)"/>
        <rect id="Rectangle_10" data-name="Rectangle 10" width="3.076" height="19.542" transform="translate(101.7 16.486)"/>
        <path id="Path_79" data-name="Path 79" d="M1888.238,318.139h0l1.265-.543,1.106-.474s-.368-.912-.622-1.354c-1.846-3.2-5.454-4.582-8.657-2.737a6.694,6.694,0,1,0,6.684,11.6,5.986,5.986,0,0,0,2.142-2.052L1887.771,321a3.6,3.6,0,0,1-1.2,1.116,3.792,3.792,0,0,1-5-1.115l6.672-2.863Zm-7.352.568a3.787,3.787,0,0,1,1.894-3.164,3.545,3.545,0,0,1,4.288.6Z" transform="translate(-1809.633 -289.277)"/>
        <path id="Path_80" data-name="Path 80" d="M2033.184,313.691l-3.275,7.618-3.275-7.618h-3.44l4.995,11.619-2.917,6.784h3.44l7.912-18.4Z" transform="translate(-1905.625 -290.261)"/>
        <path id="Path_81" data-name="Path 81" d="M1995.182,312.57c-4.212,0-5.42,2.9-5.42,2.9l2.581,1.089a2.783,2.783,0,0,1,2.967-1.481,2.812,2.812,0,0,1,1.221.358,2.584,2.584,0,0,1,1.251,2.254v.038a6.613,6.613,0,0,0-2.473-.578c-2.928-.163-5.906,1.28-5.906,4.34,0,3.233,2.756,4.383,4.8,4.383a4.359,4.359,0,0,0,3.582-1.562v1.238h3.076V317C2000.859,315.682,1999.4,312.57,1995.182,312.57Zm-.591,10.654c-1.324,0-2.3-.607-2.3-1.72s1.217-2.027,3.02-1.969a4.417,4.417,0,0,1,2.473.76A3.366,3.366,0,0,1,1994.591,323.224Z" transform="translate(-1883.289 -289.52)"/>
        <path id="Path_82" data-name="Path 82" d="M1711.381,254.759h4.177v-1.6h-4.177v-2.42h3.783v-1.6h-3.783v-2.42h4.177v-1.6h-5.779v9.647h1.6Z" transform="translate(-1698.45 -244.929)"/>
        <path id="Path_83" data-name="Path 83" d="M1734.027,254.759v-8.045h2.546v-1.6h-6.693v1.6h2.546v8.045Z" transform="translate(-1711.737 -244.929)"/>
        <rect id="Rectangle_11" data-name="Rectangle 11" width="1.602" height="9.647" transform="translate(29.131 0.183)"/>
        <path id="Path_84" data-name="Path 84" d="M1834.723,247.71l4.346,7.049h1.6v-9.647h-1.6v7.049l-4.346-7.049h-1.6v9.647h1.6Z" transform="translate(-1779.982 -244.929)"/>
        <path id="Path_85" data-name="Path 85" d="M1774.653,254.759v-8.045h2.546v-1.6h-6.693v1.6h2.546v8.045Z" transform="translate(-1738.592 -244.929)"/>
        <path id="Path_86" data-name="Path 86" d="M1805.211,254.6a4.986,4.986,0,1,0-4.986-4.986A4.985,4.985,0,0,0,1805.211,254.6Zm0-8.464a3.478,3.478,0,1,1-3.479,3.478A3.478,3.478,0,0,1,1805.211,246.14Z" transform="translate(-1758.237 -244.612)"/>
      </g>
    </g>
  </g>
</svg>
